<?xml version="1.0" encoding="UTF-8" standalone="no"?>
<!DOCTYPE svg PUBLIC "-//W3C//DTD SVG 1.1//EN" "http://www.w3.org/Graphics/SVG/1.1/DTD/svg11.dtd">
<svg xmlns="http://www.w3.org/2000/svg" version="1.1" viewBox="0.00 0.00 256.00 64.00">
<circle fill="#0e111a" cx="48.42" cy="16.21" r="3.05"/>
<circle fill="#0e111a" cx="58.65" cy="16.18" r="2.04"/>
<circle fill="#0e111a" cx="37.65" cy="16.17" r="1.53"/>
<circle fill="#0e111a" cx="69.39" cy="16.17" r="1.52"/>
<rect fill="#0e111a" x="162.14" y="19.00" width="5.24" height="25.48" rx="0.43"/>
<rect fill="#0e111a" x="172.08" y="19.01" width="5.24" height="25.46" rx="0.40"/>
<path fill="#0e111a" d="
  M 107.06 44.26
  A 0.14 0.13 73.0 0 1 106.95 44.47
  L 100.98 44.47
  A 0.41 0.40 73.5 0 1 100.64 44.28
  L 95.32 36.25
  A 0.92 0.92 0.0 0 0 93.64 36.76
  L 93.64 44.05
  A 0.42 0.41 -90.0 0 1 93.23 44.47
  L 88.56 44.47
  A 0.39 0.39 0.0 0 1 88.17 44.08
  L 88.17 20.59
  A 0.43 0.43 0.0 0 1 88.59 20.16
  C 93.83 20.13 99.47 19.33 103.00 22.39
  C 106.87 25.75 106.05 32.31 101.60 34.83
  A 0.61 0.61 0.0 0 0 101.39 35.69
  L 107.06 44.26
  Z
  M 93.67 25.04
  L 93.61 31.06
  A 0.41 0.41 0.0 0 0 94.02 31.48
  L 96.50 31.50
  A 3.33 3.07 0.5 0 0 99.86 28.46
  L 99.86 27.76
  A 3.33 3.07 0.5 0 0 96.56 24.66
  L 94.08 24.64
  A 0.41 0.41 0.0 0 0 93.67 25.04
  Z"
/>
<path fill="#0e111a" d="
  M 201.00 20.16
  Q 202.49 20.17 203.86 20.14
  A 0.78 0.78 0.0 0 1 204.62 20.68
  L 212.35 43.94
  A 0.42 0.42 0.0 0 1 211.95 44.49
  L 207.32 44.49
  A 0.75 0.75 0.0 0 1 206.61 43.98
  L 205.31 40.06
  A 0.95 0.94 -8.5 0 0 204.44 39.42
  Q 203.87 39.41 200.97 39.40
  Q 198.08 39.40 197.50 39.41
  A 0.95 0.94 8.6 0 0 196.63 40.05
  L 195.32 43.97
  A 0.75 0.75 0.0 0 1 194.61 44.47
  L 189.98 44.46
  A 0.42 0.42 0.0 0 1 189.58 43.91
  L 197.37 20.67
  A 0.78 0.78 0.0 0 1 198.13 20.14
  Q 199.50 20.16 201.00 20.16
  Z
  M 200.90 34.94
  Q 201.34 34.94 203.14 35.09
  A 0.50 0.49 -6.2 0 0 203.66 34.45
  Q 202.63 31.04 201.16 25.23
  Q 201.11 25.02 200.93 25.02
  Q 200.75 25.02 200.70 25.23
  Q 199.20 31.03 198.15 34.43
  A 0.50 0.49 6.5 0 0 198.66 35.07
  Q 200.47 34.94 200.90 34.94
  Z"
/>
<rect fill="#0e111a" x="216.06" y="20.15" width="5.42" height="24.32" rx="0.42"/>
<path fill="#0e111a" d="
  M 53.56 24.23
  Q 53.60 24.23 53.64 24.22
  A 0.26 0.08 -11.5 0 0 53.79 24.14
  C 56.09 21.04 59.91 20.24 62.66 22.99
  C 65.42 25.75 64.61 29.56 61.51 31.87
  A 0.26 0.08 -78.5 0 0 61.43 32.01
  Q 61.42 32.05 61.42 32.10
  Q 61.42 32.15 61.43 32.19
  A 0.26 0.08 78.5 0 0 61.51 32.33
  C 64.61 34.64 65.41 38.46 62.66 41.21
  C 59.91 43.96 56.09 43.16 53.78 40.05
  A 0.26 0.08 11.5 0 0 53.64 39.98
  Q 53.60 39.97 53.55 39.97
  Q 53.50 39.97 53.46 39.98
  A 0.26 0.08 -11.5 0 0 53.32 40.05
  C 51.01 43.16 47.19 43.96 44.44 41.20
  C 41.69 38.45 42.50 34.63 45.60 32.33
  A 0.26 0.08 -78.5 0 0 45.67 32.18
  Q 45.69 32.15 45.69 32.10
  Q 45.69 32.05 45.67 32.01
  A 0.26 0.08 78.5 0 0 45.60 31.87
  C 42.50 29.56 41.70 25.74 44.45 22.99
  C 47.20 20.24 51.02 21.04 53.33 24.14
  A 0.26 0.08 11.5 0 0 53.47 24.22
  Q 53.51 24.23 53.56 24.23
  Z
  M 52.34 30.92
  Q 51.94 31.33 51.52 31.72
  A 0.49 0.49 0.0 0 0 51.50 32.41
  Q 51.91 32.85 52.36 33.28
  Q 52.80 33.71 53.25 34.12
  A 0.49 0.49 0.0 0 0 53.95 34.08
  Q 54.32 33.64 54.72 33.24
  Q 55.11 32.83 55.54 32.44
  A 0.49 0.49 0.0 0 0 55.56 31.75
  Q 55.14 31.31 54.70 30.88
  Q 54.25 30.45 53.80 30.04
  A 0.49 0.49 0.0 0 0 53.11 30.08
  Q 52.73 30.52 52.34 30.92
  Z"
/>
<path fill="#0e111a" d="
  M 139.70 40.37
  L 139.70 43.54
  A 0.78 0.77 84.0 0 1 139.09 44.30
  C 128.10 46.66 129.91 37.56 129.93 30.74
  A 0.71 0.70 -0.0 0 0 129.22 30.04
  L 127.81 30.04
  A 0.50 0.49 90.0 0 1 127.32 29.54
  L 127.32 26.73
  A 0.55 0.55 0.0 0 1 127.87 26.18
  L 129.47 26.18
  A 0.43 0.43 0.0 0 0 129.90 25.75
  L 129.90 22.55
  A 0.74 0.74 0.0 0 1 130.64 21.81
  L 134.48 21.81
  A 0.70 0.69 90.0 0 1 135.17 22.51
  L 135.17 25.66
  A 0.53 0.52 -0.0 0 0 135.70 26.18
  L 138.81 26.18
  A 0.59 0.58 -90.0 0 1 139.39 26.77
  L 139.39 29.46
  A 0.57 0.57 0.0 0 1 138.82 30.03
  L 135.74 30.03
  A 0.60 0.60 0.0 0 0 135.14 30.63
  L 135.20 39.07
  A 0.58 0.48 39.3 0 0 135.24 39.27
  Q 135.92 41.07 139.20 40.00
  A 0.39 0.38 81.2 0 1 139.70 40.37
  Z"
/>
<circle fill="#0e111a" cx="69.40" cy="26.95" r="3.07"/>
<circle fill="#0e111a" cx="37.66" cy="26.97" r="2.02"/>
<path fill="#0e111a" d="
  M 124.22 39.32
  L 124.22 43.10
  A 0.53 0.51 -12.5 0 1 123.91 43.57
  C 120.67 45.05 115.52 45.18 112.61 42.90
  C 106.49 38.10 108.28 26.32 117.22 26.07
  C 123.97 25.88 125.95 31.07 125.17 36.91
  A 0.60 0.59 -86.1 0 1 124.58 37.43
  L 115.03 37.43
  A 0.56 0.55 67.4 0 0 114.64 38.38
  Q 118.49 42.26 124.00 39.19
  A 0.15 0.15 0.0 0 1 124.22 39.32
  Z
  M 114.64 33.66
  L 120.24 33.60
  A 0.29 0.29 0.0 0 0 120.53 33.30
  L 120.53 33.10
  A 3.11 3.06 89.3 0 0 117.43 30.03
  L 117.37 30.03
  A 3.11 3.06 89.3 0 0 114.35 33.18
  L 114.35 33.38
  A 0.29 0.29 0.0 0 0 114.64 33.66
  Z"
/>
<path fill="#0e111a" d="
  M 157.19 39.30
  L 157.20 43.08
  A 0.53 0.51 -12.8 0 1 156.90 43.55
  C 153.66 45.05 148.51 45.20 145.59 42.93
  C 139.45 38.16 141.19 26.36 150.13 26.07
  C 156.88 25.85 158.88 31.04 158.13 36.88
  A 0.60 0.59 -86.4 0 1 157.54 37.41
  L 147.99 37.45
  A 0.56 0.55 67.2 0 0 147.60 38.40
  Q 151.47 42.27 156.97 39.17
  A 0.15 0.15 0.0 0 1 157.19 39.30
  Z
  M 147.57 33.67
  L 153.16 33.59
  A 0.29 0.29 0.0 0 0 153.45 33.30
  L 153.45 33.10
  A 3.11 3.08 89.2 0 0 150.32 30.03
  L 150.30 30.03
  A 3.11 3.08 89.2 0 0 147.27 33.18
  L 147.27 33.38
  A 0.29 0.29 0.0 0 0 147.57 33.67
  Z"
/>
<circle fill="#0e111a" cx="37.69" cy="37.23" r="3.05"/>
<circle fill="#0e111a" cx="69.41" cy="37.24" r="2.05"/>
<circle fill="#0e111a" cx="58.66" cy="48.00" r="3.07"/>
<circle fill="#0e111a" cx="48.43" cy="48.01" r="2.01"/>
<circle fill="#0e111a" cx="37.66" cy="48.00" r="1.52"/>
<circle fill="#0e111a" cx="69.39" cy="48.00" r="1.52"/>
</svg>
